<svg id="eb113788-f1f1-4c1f-be62-f1d0ea2e1eb6" data-name="Layer 1" xmlns="http://www.w3.org/2000/svg" xmlns:xlink="http://www.w3.org/1999/xlink" width="795.4" height="574" viewBox="0 0 795.39431 574.03802"><defs><linearGradient id="b2a81085-935f-40be-bb27-75940df8c338" x1="-450.78971" y1="2803.04671" x2="-450.78971" y2="2729.34772" gradientTransform="translate(3217.53309 1009.65784) rotate(90)" gradientUnits="userSpaceOnUse"><stop offset="0" stop-color="grey" stop-opacity="0.25"/><stop offset="0.5" stop-color="grey" stop-opacity="0.12"/><stop offset="1" stop-color="grey" stop-opacity="0.1"/></linearGradient></defs><title>Graduation</title><ellipse cx="232.1" cy="450.1" rx="35.1" ry="5.3" transform="translate(-476.6,294.9) rotate(-63.6)" fill="#e0e0e0"/><ellipse cx="670.6" cy="667.9" rx="35.1" ry="3.6" transform="translate(-428,808.7) rotate(-63.6)" fill="#e0e0e0"/><rect x="398" y="566.9" width="21.1" height="70.2" transform="translate(274.5,-285.3) rotate(39.5)" fill="#000000"/><rect x="409.3" y="573.6" width="23.7" height="70.2" transform="translate(489.5,1134.6) rotate(-166.8)" opacity="0.05"/><rect x="411.9" y="573.9" width="21.1" height="70.2" transform="matrix(-1,-0.2,0.2,-1,492,1135.5)" fill="#000000"/><rect x="414.5" y="314.1" width="73.7" height="489.6" transform="translate(-452.2,551.8) rotate(-63.6)" fill="url(#b2a81085-935f-40be-bb27-75940df8c338)"/><path d="M 655 699.1 c -8.6 -4.1 -444.8 -220.7 -438.6 -217.6 c 24.2 -37 31.2 -62.9 31.2 -62.9 l 438.6 217.6 S 670.8 663.3 655 699.1 Z" transform="translate(-202.3,-163)" fill="#f5f5f5"/><rect x="421.7" y="519.1" width="40.4" height="70.2" transform="translate(90.1,-301.6) rotate(26.4)" opacity="0.05"/><rect x="423.5" y="519.1" width="36.8" height="70.2" transform="translate(90.1,-301.6) rotate(26.4)" fill="#000000"/><rect x="428.8" y="518.7" width="24.6" height="70.2" transform="translate(89.8,-301.3) rotate(26.4)" opacity="0.05"/><rect x="430.6" y="518.7" width="21.1" height="70.2" transform="translate(89.8,-301.3) rotate(26.4)" fill="#000000"/><circle cx="261.3" cy="563.9" r="2.9" fill="#dbdbdb"/><g opacity="0.5"><rect x="29.4" y="482" width="3" height="17" fill="#47e6b1"/><rect x="231.7" y="645" width="3" height="17" transform="translate(684.4,257.3) rotate(90)" fill="#47e6b1"/></g><g opacity="0.5"><rect x="785.4" y="270" width="3" height="17" fill="#47e6b1"/><rect x="987.7" y="433" width="3" height="17" transform="translate(1228.4,-710.7) rotate(90)" fill="#47e6b1"/></g><g opacity="0.5"><rect x="47.4" y="59" width="3" height="17" fill="#47e6b1"/><rect x="249.7" y="222" width="3" height="17" transform="translate(279.4,-183.7) rotate(90)" fill="#47e6b1"/></g><g opacity="0.5"><rect x="695.4" y="33" width="3" height="17" fill="#47e6b1"/><rect x="897.7" y="196" width="3" height="17" transform="translate(901.4,-857.7) rotate(90)" fill="#47e6b1"/></g><path d="M 214.6 416.4 a 3.7 3.7 0 0 1 -2 -4.4 a 1.8 1.8 0 0 0 0.1 -0.4 h 0 a 1.8 1.8 0 0 0 -3.3 -1.2 h 0 a 1.8 1.8 0 0 0 -0.2 0.4 a 3.7 3.7 0 0 1 -4.4 2 a 1.8 1.8 0 0 0 -0.4 -0.1 h 0 a 1.8 1.8 0 0 0 -1.2 3.3 h 0 a 1.8 1.8 0 0 0 0.4 0.2 a 3.7 3.7 0 0 1 2 4.4 a 1.8 1.8 0 0 0 -0.1 0.4 h 0 a 1.8 1.8 0 0 0 3.3 1.2 h 0 a 1.8 1.8 0 0 0 0.2 -0.4 a 3.7 3.7 0 0 1 4.4 -2 a 1.8 1.8 0 0 0 0.4 0.1 h 0 a 1.8 1.8 0 0 0 1.2 -3.3 h 0 A 1.8 1.8 0 0 0 214.6 416.4 Z" transform="translate(-202.3,-163)" fill="#4d8af0" opacity="0.5"/><path d="M 386.6 219.4 a 3.7 3.7 0 0 1 -2 -4.4 a 1.8 1.8 0 0 0 0.1 -0.4 h 0 a 1.8 1.8 0 0 0 -3.3 -1.2 h 0 a 1.8 1.8 0 0 0 -0.2 0.4 a 3.7 3.7 0 0 1 -4.4 2 a 1.8 1.8 0 0 0 -0.4 -0.1 h 0 a 1.8 1.8 0 0 0 -1.2 3.3 h 0 a 1.8 1.8 0 0 0 0.4 0.2 a 3.7 3.7 0 0 1 2 4.4 a 1.8 1.8 0 0 0 -0.1 0.4 h 0 a 1.8 1.8 0 0 0 3.3 1.2 h 0 a 1.8 1.8 0 0 0 0.2 -0.4 a 3.7 3.7 0 0 1 4.4 -2 a 1.8 1.8 0 0 0 0.4 0.1 h 0 a 1.8 1.8 0 0 0 1.2 -3.3 h 0 A 1.8 1.8 0 0 0 386.6 219.4 Z" transform="translate(-202.3,-163)" fill="#4d8af0" opacity="0.5"/><path d="M 596.6 730.4 a 3.7 3.7 0 0 1 -2 -4.4 a 1.8 1.8 0 0 0 0.1 -0.4 h 0 a 1.8 1.8 0 0 0 -3.3 -1.2 h 0 a 1.8 1.8 0 0 0 -0.2 0.4 a 3.7 3.7 0 0 1 -4.4 2 a 1.8 1.8 0 0 0 -0.4 -0.1 h 0 a 1.8 1.8 0 0 0 -1.2 3.3 h 0 a 1.8 1.8 0 0 0 0.4 0.2 a 3.7 3.7 0 0 1 2 4.4 a 1.8 1.8 0 0 0 -0.1 0.4 h 0 a 1.8 1.8 0 0 0 3.3 1.2 h 0 a 1.8 1.8 0 0 0 0.2 -0.4 a 3.7 3.7 0 0 1 4.4 -2 a 1.8 1.8 0 0 0 0.4 0.1 h 0 a 1.8 1.8 0 0 0 1.2 -3.3 h 0 A 1.8 1.8 0 0 0 596.6 730.4 Z" transform="translate(-202.3,-163)" fill="#4d8af0" opacity="0.5"/><circle cx="759.4" cy="444" r="6" fill="#000000" opacity="0.5"/><circle cx="627.4" cy="482" r="6" fill="#4d8af0" opacity="0.5"/><circle cx="103.4" cy="541" r="6" fill="#47e6b1" opacity="0.5"/><circle cx="411.4" cy="6" r="6" fill="#000000" opacity="0.5"/><path d="M 407.2 520.5 l -24 36 s 8 37 185 36 s 191 -36 191 -36 l -33 -48 l -101 -69 Z" transform="translate(-202.3,-163)" fill="#28a745"/><path d="M 407.2 520.5 l -24 36 s 8 37 185 36 s 191 -36 191 -36 l -33 -48 l -101 -69 Z" transform="translate(-202.3,-163)" opacity="0.15"/><polygon points="715.4,224 400.4,363 16.4,224 368.4,64 541.2,143.7 547.4,146.5 715.4,224" fill="#28a745"/><polygon points="715.4,224 400.4,363 16.4,224 368.4,64 541.2,143.7 547.4,146.5 715.4,224" opacity="0.15"/><polygon points="553.9,257.3 547.9,257.7 541.2,143.7 547.4,146.5 553.9,257.3" fill="#f5f5f5"/><path d="M 411.2 386.5 l -28 170 s 201 -65 376 0 l -26 -180 S 498.2 347.5 411.2 386.5 Z" transform="matrix(1,0,0,1,-202.3,-163)" fill="#28a745"/><ellipse cx="553.4" cy="272" rx="29" ry="20" fill="#f5f5f5"/></svg>